<svg id="Capa_1" data-name="Capa 1" 
xmlns="http://www.w3.org/2000/svg" 
viewBox="0 0 2234.72 2420.59">

<defs>
  <style>
  .cls-1{fill:#fff;}
  .cls-2{fill:#1e1a19;}
  .cls-3{fill:#1d1d1b;}
  .cls-4{fill:#b2b2b2;}
  </style>
</defs>

<rect class="cls-1" x="2.68" y="2.68" width="2229.36" height="2415.23"/>
<path class="cls-2" d="M2234.72,2420.59H0V0H2234.72ZM5.36,2415.23h2224V5.36H5.36Z"/>
<polygon class="cls-3" points="334.41 1314.17 334.41 1289.2 146.68 1140.6 334.41 992 334.41 967.02 124.82 1132.92 124.82 1148.28 334.41 1314.17"/>
<polygon class="cls-3" points="1892.85 1314.17 1892.85 1289.2 2080.59 1140.6 1892.85 992 1892.85 967.02 2102.44 1132.92 2102.44 1148.28 1892.85 1314.17"/>
<path class="cls-4" d="M1193.47,671.31l-29,7.75a2.2,2.2,0,0,1-.61.09,2.42,2.42,0,0,1-2.33-1.78l-39-141c-.18-.68-.5-1-.87-1s-.66.26-1,.79l-74.25,126a2.41,2.41,0,0,1-2.08,1.18,2.31,2.31,0,0,1-1.19-.32l-26-15a2.44,2.44,0,0,1-.89-3.28l72.08-127.27c.54-1,.27-1.56-.54-1.56a3.36,3.36,0,0,0-.59.07L945.63,552.64a2.47,2.47,0,0,1-.6.08,2.45,2.45,0,0,1-2.34-1.78l-7.75-29a2.42,2.42,0,0,1,1.69-2.94l197.56-54.1-.25.13s7.21-3.14,9.32,4l0,.08,15.22,56.81a2.05,2.05,0,0,0,.06.83l36.61,141.62a2.42,2.42,0,0,1-1.71,2.93"/>
<path class="cls-3" d="M1321.61,449.5l-7.76-29a2.42,2.42,0,0,0-2.93-1.71l-141.61,36.61c-1.28.33-1.78-.33-1.13-1.47l72.07-127.29a2.43,2.43,0,0,0-.89-3.27l-26-15a2.4,2.4,0,0,0-3.27.87l-74.26,126c-.66,1.13-1.49,1-1.84-.25l-39-141a2.43,2.43,0,0,0-3-1.69l-29,7.76a2.41,2.41,0,0,0-1.71,2.92L1098,444.69c.32,1.27-.34,1.79-1.48,1.15l-127.28-72.1a2.44,2.44,0,0,0-3.27.9l-15,26a2.42,2.42,0,0,0,.87,3.28L1067.44,472l71.33-19.54a10.69,10.69,0,0,1,2.85-.38,10.79,10.79,0,0,1,10.42,8l2.64,9.93.19.66,14.06,52.47a11.17,11.17,0,0,1,.33,1.89l1.76,6.82,116.32,65.86a2.42,2.42,0,0,0,3.26-.9l15-26a2.41,2.41,0,0,0-.85-3.28l-126-74.25c-1.13-.66-1-1.49.24-1.84l141-39.05a2.41,2.41,0,0,0,1.69-2.93"/>
<path class="cls-3" d="M480.21,1015c6.2-5.91,14.24-8.78,24.6-8.78h90.47V945.61H510.1c-33.09,0-59.12,8.45-77.37,25.13h0c-18.5,16.9-27.88,42.08-27.88,74.84v190c0,32.76,9.38,58,27.88,74.84,18.24,16.67,44.27,25.12,77.37,25.12h85.18V1275H504.81c-10.37,0-18.42-2.88-24.6-8.79s-9-12.39-9-20.58V1035.55C471.23,1027.38,474.08,1020.84,480.21,1015Z"/><path class="cls-3" d="M824.38,970.74c-18.23-16.67-44.26-25.12-77.37-25.12H725.9c-33.12,0-59.15,8.45-77.36,25.12-18.5,16.9-27.88,42.08-27.88,74.84v190c0,32.77,9.38,58,27.88,74.85,18.21,16.67,44.24,25.12,77.36,25.12H747c33.11,0,59.14-8.45,77.37-25.12,18.49-16.91,27.88-42.09,27.88-74.85v-190C852.26,1012.83,842.87,987.65,824.38,970.74ZM687,1035.55c0-8.17,2.85-14.71,9-20.58s14.23-8.77,24.61-8.77h31.67c10.38,0,18.42,2.87,24.6,8.77s9,12.42,9,20.58v210.09c0,8.18-2.86,14.71-9,20.58s-14.22,8.78-24.6,8.78H720.62c-10.38,0-18.43-2.87-24.61-8.78s-9-12.4-9-20.58Z"/><path class="cls-3" d="M1078.68,967.11h0c-18-14.26-44.26-21.48-78.14-21.48H887.9v389.95h119c34.48,0,60-7.29,75.77-21.67,16-14.63,24.19-38.84,24.19-72V1038.19C1106.82,1005.85,1097.35,981.93,1078.68,967.11Zm-38.24,66.34v213.78c0,10.45-2.15,17.84-6.39,22s-11.89,6.35-22.44,6.35H954.28V1005.65h57.86c8.9,0,15.72,2.43,20.84,7.4S1040.44,1024.5,1040.44,1033.45Z"/><polygon class="cls-3" points="1344.08 1004.6 1344.08 945.62 1147.32 945.62 1147.32 1335.57 1344.08 1335.57 1344.08 1276.59 1213.7 1276.59 1213.7 1164.02 1330.9 1164.02 1330.9 1105.03 1213.7 1105.03 1213.7 1004.6 1344.08 1004.6"/><path class="cls-3" d="M1551.07,1169c29.16-13.33,43.93-40.24,43.93-80.1v-50.68c0-31.5-8.91-55.15-26.49-70.29-17.15-14.78-42.21-22.28-74.51-22.28H1384.54v389.95h66.36V1182.49h34.87l68.1,153.08h72.63Zm-22.44-135.53v60.71c0,10.36-2.16,18-6.24,22.07s-11.71,6.24-22.06,6.24H1450.9v-116.8h49.43c10.4,0,18.06,2.1,22.15,6.07S1528.63,1023.15,1528.63,1033.44Z"/><path class="cls-3" d="M1806.15,1128.22h0c-15.85-16.43-38-24.77-65.68-24.77h-15.85c-8.58,0-15-2.46-20.13-7.74s-7.65-11.71-7.65-20v-40.12c0-8.17,2.85-14.71,9-20.58s14.24-8.78,24.61-8.78h91V945.61H1735.7c-33.08,0-59.11,8.46-77.37,25.13-18.48,16.91-27.86,42.09-27.86,74.84v20.06c0,31.87,8.63,56.75,25.65,73.95s40.27,26,69,26H1741c7.81,0,13.27,2,16.71,6.09,3.9,4.67,5.8,10.9,5.8,19v54.91c0,8.18-2.86,14.71-9,20.59s-14.21,8.78-24.59,8.78h-90.47v60.57h85.18c33.1,0,59.13-8.45,77.37-25.12,18.5-16.89,27.88-42.08,27.88-74.84v-34.85C1829.87,1169,1821.89,1144.56,1806.15,1128.22Z"/>

</svg>
